# xmcd
# 
# Track frame offsets:
#     150
#     14440
#     32882
#     50097
#     64810
#     82570
#     103712
#     129195
#     150647
#     169680
#     188430
#     213140
#     237475
#     254295
#     271835
# 
# Disc length: 3948
# 
# Revision: 1
# Processed by: cddbd v1.5.2PL0 Copyright (c) Steve Scherf et al.
# Submitted via: fre:ac v1.0.17
# 
DISCID=bb0f6a0f
DTITLE=Tarkan - Tarkan
DYEAR=1998
DGENRE=
TTITLE0=Simarik [Radio Edit]
TTITLE1=Olurum Sana
TTITLE2=Bu Gece (Kir Zincirlerini) [Remix 99]
TTITLE3=Sikidim (Hepsi Senin Mi?) [Radio Mix]
TTITLE4=Salina Salina Sinsice
TTITLE5=Ikimizin Yerine
TTITLE6=Inci Tanem
TTITLE7=Dön Bebegim
TTITLE8=Basina Bela Olurum
TTITLE9=Gül Döktüm Yollarina
TTITLE10=Unut Beni
TTITLE11=Beni Anlama
TTITLE12=Delikanli Caglarim
TTITLE13=Simarik [Long Version]
TTITLE14=Bu Gece (Kir Zincirlerini) [Club Remix]
EXTD=
EXTT0=
EXTT1=
EXTT2=
EXTT3=
EXTT4=
EXTT5=
EXTT6=
EXTT7=
EXTT8=
EXTT9=
EXTT10=
EXTT11=
EXTT12=
EXTT13=
EXTT14=
PLAYORDER=
